<?xml version="1.0" encoding="UTF-8"?>
<svg xmlns="http://www.w3.org/2000/svg" xmlns:xlink="http://www.w3.org/1999/xlink" width="124px" height="32px" viewBox="0 0 124 32" version="1.1">
<g id="surface1">
<path style=" stroke:none;fill-rule:nonzero;fill:rgb(36.078431%,88.235294%,90.196078%);fill-opacity:1;" d="M 42.972656 15.988281 C 42.972656 21.980469 38.847656 27.1875 32.738281 29.929688 C 29.84375 31.226562 26.492188 31.972656 22.945312 31.972656 C 19.167969 31.972656 15.648438 31.148438 12.628906 29.691406 C 6.8125 26.898438 2.917969 21.808594 2.917969 15.988281 C 2.917969 7.160156 11.886719 0 22.945312 0 C 34.019531 0 42.972656 7.160156 42.972656 15.988281 Z M 42.972656 15.988281 "/>
<path style=" stroke:none;fill-rule:nonzero;fill:rgb(100%,100%,100%);fill-opacity:1;" d="M 32.570312 29.796875 L 32.570312 30.019531 C 29.761719 31.277344 26.527344 32 23.074219 32 C 19.414062 32 15.945312 31.292969 13.023438 29.890625 C 13.039062 26.074219 16.980469 22.859375 21.761719 22.859375 L 23.863281 22.859375 C 28.660156 22.847656 32.570312 25.96875 32.570312 29.796875 Z M 32.570312 29.796875 "/>
<path style=" stroke:none;fill-rule:nonzero;fill:rgb(100%,100%,100%);fill-opacity:1;" d="M 32.570312 29.613281 C 32.34375 25.507812 28.070312 22.21875 22.878906 22.21875 C 17.6875 22.21875 13.417969 25.523438 13.1875 29.613281 Z M 32.570312 29.613281 "/>
<path style=" stroke:none;fill-rule:nonzero;fill:rgb(36.078431%,88.235294%,90.196078%);fill-opacity:1;" d="M 18.558594 24 C 20.628906 24.261719 22.453125 25.496094 23.109375 27.082031 C 23.800781 25.523438 25.605469 24.433594 27.5625 23.894531 C 25.671875 23.710938 24.078125 22.425781 23.058594 21.140625 C 21.894531 22.480469 20.578125 23.988281 18.558594 24 Z M 18.558594 24 "/>
<path style=" stroke:none;fill-rule:nonzero;fill:rgb(100%,100%,100%);fill-opacity:1;" d="M 27.117188 24.460938 L 18.082031 24.460938 C 13.316406 24.460938 9.40625 21.351562 9.40625 17.535156 L 9.40625 14.242188 C 9.40625 10.441406 13.300781 7.316406 18.082031 7.316406 L 27.117188 7.316406 C 31.882812 7.316406 35.792969 10.425781 35.792969 14.242188 L 35.792969 17.535156 C 35.792969 21.339844 31.882812 24.460938 27.117188 24.460938 Z M 27.117188 24.460938 "/>
<path style=" stroke:none;fill-rule:nonzero;fill:rgb(100%,100%,100%);fill-opacity:1;" d="M 32.261719 10.074219 C 34.511719 9.835938 36.628906 8.851562 38.011719 7.410156 C 39.390625 5.96875 39.996094 4.066406 39.667969 2.269531 C 37.632812 2.847656 35.875 3.765625 34.609375 5.167969 C 33.378906 6.570312 32.292969 8.339844 32.261719 10.074219 Z M 32.261719 10.074219 "/>
<path style=" stroke:none;fill-rule:nonzero;fill:rgb(100%,100%,100%);fill-opacity:1;" d="M 32.507812 9.5625 C 33.230469 11.121094 34.757812 12.433594 36.644531 13.113281 C 38.535156 13.796875 40.785156 13.847656 42.726562 13.257812 C 41.65625 11.933594 40.277344 10.859375 38.453125 10.242188 C 36.644531 9.652344 34.429688 9.234375 32.507812 9.5625 Z M 32.507812 9.5625 "/>
<path style=" stroke:none;fill-rule:nonzero;fill:rgb(36.078431%,88.235294%,90.196078%);fill-opacity:1;" d="M 31.027344 17.941406 L 14.960938 17.941406 C 13.382812 17.941406 12.085938 16.90625 12.085938 15.644531 C 12.085938 14.386719 13.382812 13.351562 14.960938 13.351562 L 31.042969 13.351562 C 32.621094 13.351562 33.917969 14.386719 33.917969 15.644531 C 33.917969 16.90625 32.621094 17.941406 31.027344 17.941406 Z M 31.027344 17.941406 "/>
<path style=" stroke:none;fill-rule:nonzero;fill:rgb(100%,100%,100%);fill-opacity:1;" d="M 31.226562 14.714844 C 29.023438 14.585938 26.640625 15.605469 25.558594 16.839844 C 26.96875 17.0625 30.171875 16.761719 31.226562 14.714844 Z M 31.226562 14.714844 "/>
<path style=" stroke:none;fill-rule:nonzero;fill:rgb(100%,100%,100%);fill-opacity:1;" d="M 15.304688 14.714844 C 17.507812 14.585938 19.890625 15.605469 20.972656 16.839844 C 19.5625 17.0625 16.375 16.761719 15.304688 14.714844 Z M 15.304688 14.714844 "/>
<path style=" stroke:none;fill-rule:nonzero;fill:rgb(100%,100%,100%);fill-opacity:1;" d="M 15.421875 26.570312 L 0.863281 14.648438 C 0.585938 14.414062 0.09375 14.570312 0.09375 14.898438 C 0.0742188 15.605469 0.0742188 16.316406 0.0742188 17.011719 C 0.0742188 17.179688 0.15625 17.339844 0.304688 17.457031 L 15.089844 29.574219 C 15.191406 29.652344 15.304688 29.71875 15.421875 29.769531 Z M 15.421875 26.570312 "/>
<path style=" stroke:none;fill-rule:nonzero;fill:rgb(36.078431%,88.235294%,90.196078%);fill-opacity:1;" d="M 0.6875 17.765625 L 2.738281 16.175781 L 3.402344 16.71875 L 1.355469 18.3125 Z M 0.6875 17.765625 "/>
<path style=" stroke:none;fill-rule:nonzero;fill:rgb(36.078431%,88.235294%,90.196078%);fill-opacity:1;" d="M 2.300781 19.09375 L 4.347656 17.5 L 5.011719 18.046875 L 2.964844 19.636719 Z M 2.300781 19.09375 "/>
<path style=" stroke:none;fill-rule:nonzero;fill:rgb(100%,100%,100%);fill-opacity:1;" d="M 8.519531 19.542969 L 4.445312 22.464844 C 4.152344 22.675781 3.691406 22.664062 3.425781 22.425781 C 3.164062 22.191406 3.179688 21.824219 3.476562 21.613281 L 7.566406 18.6875 C 7.863281 18.480469 8.324219 18.492188 8.585938 18.726562 C 8.847656 18.964844 8.816406 19.332031 8.519531 19.542969 Z M 8.519531 19.542969 "/>
<path style=" stroke:none;fill-rule:nonzero;fill:rgb(100%,100%,100%);fill-opacity:1;" d="M 45.207031 15.828125 L 27.511719 28 C 26.871094 28.433594 26.839844 29.234375 27.480469 29.707031 C 28.023438 30.097656 28.859375 30.085938 29.402344 29.707031 L 45.453125 18.664062 C 45.601562 18.558594 45.699219 18.398438 45.730469 18.242188 C 45.8125 17.535156 45.878906 16.839844 45.945312 16.132812 C 45.976562 15.804688 45.5 15.621094 45.207031 15.828125 Z M 45.207031 15.828125 "/>
<path style=" stroke:none;fill-rule:nonzero;fill:rgb(36.078431%,88.235294%,90.196078%);fill-opacity:1;" d="M 42.449219 17.71875 L 43.167969 17.222656 L 45.035156 18.949219 L 44.3125 19.445312 Z M 42.449219 17.71875 "/>
<path style=" stroke:none;fill-rule:nonzero;fill:rgb(36.078431%,88.235294%,90.196078%);fill-opacity:1;" d="M 40.691406 18.925781 L 41.414062 18.429688 L 43.277344 20.160156 L 42.558594 20.65625 Z M 40.691406 18.925781 "/>
<path style=" stroke:none;fill-rule:nonzero;fill:rgb(100%,100%,100%);fill-opacity:1;" d="M 37.039062 20.15625 L 40.769531 23.359375 C 41.03125 23.59375 41.492188 23.605469 41.789062 23.382812 C 42.085938 23.175781 42.101562 22.808594 41.820312 22.570312 L 38.09375 19.371094 C 37.828125 19.136719 37.367188 19.121094 37.074219 19.34375 C 36.777344 19.566406 36.761719 19.933594 37.039062 20.15625 Z M 37.039062 20.15625 "/>
<path style=" stroke:none;fill-rule:nonzero;fill:rgb(100%,100%,100%);fill-opacity:1;" d="M 6.613281 14.871094 L 7.089844 15.566406 L 7.960938 15.949219 L 7.089844 16.339844 L 6.613281 17.035156 L 6.136719 16.339844 L 5.269531 15.949219 L 6.136719 15.566406 Z M 6.613281 14.871094 "/>
<path style=" stroke:none;fill-rule:nonzero;fill:rgb(100%,100%,100%);fill-opacity:1;" d="M 8.042969 11.671875 L 8.324219 12.078125 L 8.816406 12.289062 L 8.324219 12.511719 L 8.042969 12.90625 L 7.765625 12.511719 L 7.273438 12.289062 L 7.765625 12.078125 Z M 8.042969 11.671875 "/>
<path style=" stroke:none;fill-rule:nonzero;fill:rgb(100%,100%,100%);fill-opacity:1;" d="M 23.453125 2.425781 L 24.027344 3.253906 L 25.0625 3.710938 L 24.027344 4.15625 L 23.453125 4.984375 L 22.878906 4.15625 L 21.84375 3.710938 L 22.878906 3.253906 Z M 23.453125 2.425781 "/>
<path style=" stroke:none;fill-rule:nonzero;fill:rgb(100%,100%,100%);fill-opacity:1;" d="M 20.167969 4.734375 L 20.429688 5.101562 L 20.890625 5.296875 L 20.429688 5.507812 L 20.167969 5.875 L 19.921875 5.507812 L 19.445312 5.296875 L 19.921875 5.101562 Z M 20.167969 4.734375 "/>
<path style=" stroke:none;fill-rule:nonzero;fill:rgb(100%,100%,100%);fill-opacity:1;" d="M 13.792969 3.4375 L 14.039062 3.804688 L 14.5 4.011719 L 14.039062 4.210938 L 13.792969 4.578125 L 13.53125 4.210938 L 13.070312 4.011719 L 13.53125 3.804688 Z M 13.792969 3.4375 "/>
<path style=" stroke:none;fill-rule:nonzero;fill:rgb(100%,100%,100%);fill-opacity:1;" d="M 30.601562 3.136719 L 30.863281 3.503906 L 31.324219 3.710938 L 30.863281 3.910156 L 30.601562 4.277344 L 30.355469 3.910156 L 29.894531 3.710938 L 30.355469 3.503906 Z M 30.601562 3.136719 "/>
<path style=" stroke:none;fill-rule:nonzero;fill:rgb(100%,100%,100%);fill-opacity:1;" d="M 38.042969 16.644531 L 38.320312 17.050781 L 38.816406 17.273438 L 38.320312 17.480469 L 38.042969 17.890625 L 37.761719 17.480469 L 37.269531 17.273438 L 37.761719 17.050781 Z M 38.042969 16.644531 "/>
<path style=" stroke:none;fill-rule:nonzero;fill:rgb(100%,100%,100%);fill-opacity:1;" d="M 40.308594 14.558594 L 40.65625 15.054688 L 41.28125 15.332031 L 40.65625 15.605469 L 40.308594 16.105469 L 39.964844 15.605469 L 39.339844 15.332031 L 39.964844 15.054688 Z M 40.308594 14.558594 "/>
<path style=" stroke:none;fill-rule:nonzero;fill:rgb(36.078431%,88.235294%,90.196078%);fill-opacity:1;" d="M 57.714844 25.632812 C 56.738281 25.632812 55.867188 25.535156 55.101562 25.34375 C 54.339844 25.152344 53.703125 24.898438 53.195312 24.585938 C 52.6875 24.273438 52.300781 23.929688 52.027344 23.550781 L 53.566406 22.058594 L 53.804688 22.058594 C 54.230469 22.558594 54.769531 22.960938 55.421875 23.261719 C 56.074219 23.558594 56.839844 23.707031 57.714844 23.707031 C 58.460938 23.707031 59.027344 23.582031 59.40625 23.332031 C 59.785156 23.078125 59.976562 22.730469 59.976562 22.289062 C 59.976562 22.019531 59.914062 21.796875 59.792969 21.617188 C 59.667969 21.4375 59.464844 21.285156 59.183594 21.15625 C 58.898438 21.027344 58.515625 20.914062 58.035156 20.824219 L 56.21875 20.492188 C 54.949219 20.261719 54.007812 19.878906 53.382812 19.339844 C 52.765625 18.804688 52.453125 18.105469 52.453125 17.246094 C 52.453125 16.609375 52.652344 16.050781 53.050781 15.566406 C 53.449219 15.085938 54.03125 14.710938 54.792969 14.441406 C 55.558594 14.175781 56.472656 14.039062 57.53125 14.039062 C 58.621094 14.039062 59.554688 14.15625 60.328125 14.382812 C 61.105469 14.613281 61.757812 14.960938 62.292969 15.433594 L 60.910156 16.945312 L 60.667969 16.945312 C 60.269531 16.613281 59.8125 16.363281 59.300781 16.195312 C 58.785156 16.027344 58.195312 15.945312 57.53125 15.945312 C 56.765625 15.945312 56.183594 16.054688 55.785156 16.269531 C 55.386719 16.484375 55.1875 16.78125 55.1875 17.164062 C 55.1875 17.519531 55.324219 17.800781 55.605469 18.011719 C 55.886719 18.222656 56.371094 18.386719 57.058594 18.503906 L 58.914062 18.8125 C 60.285156 19.042969 61.277344 19.433594 61.898438 19.988281 C 62.515625 20.539062 62.824219 21.261719 62.824219 22.148438 C 62.824219 22.855469 62.632812 23.46875 62.253906 23.988281 C 61.875 24.511719 61.300781 24.914062 60.535156 25.203125 C 59.769531 25.488281 58.828125 25.632812 57.714844 25.632812 Z M 57.714844 25.632812 "/>
<path style=" stroke:none;fill-rule:nonzero;fill:rgb(36.078431%,88.235294%,90.196078%);fill-opacity:1;" d="M 65.121094 25.472656 L 65.121094 13.554688 L 67.796875 13.554688 L 67.796875 18.078125 L 68 18.109375 C 68.355469 17.695312 68.789062 17.371094 69.300781 17.148438 C 69.816406 16.921875 70.441406 16.808594 71.167969 16.808594 C 73.515625 16.808594 74.691406 17.871094 74.691406 20 L 74.691406 25.472656 L 72.015625 25.472656 L 72.015625 20.269531 C 72.015625 19.6875 71.871094 19.265625 71.582031 19.003906 C 71.292969 18.742188 70.839844 18.613281 70.230469 18.613281 C 69.484375 18.613281 68.890625 18.8125 68.453125 19.210938 C 68.015625 19.605469 67.796875 20.226562 67.796875 21.070312 L 67.796875 25.472656 Z M 65.121094 25.472656 "/>
<path style=" stroke:none;fill-rule:nonzero;fill:rgb(36.078431%,88.235294%,90.196078%);fill-opacity:1;" d="M 78.929688 15.953125 C 78.449219 15.953125 78.054688 15.835938 77.75 15.601562 C 77.449219 15.367188 77.300781 15.066406 77.300781 14.695312 C 77.300781 14.332031 77.449219 14.03125 77.75 13.800781 C 78.054688 13.566406 78.449219 13.449219 78.929688 13.449219 C 79.25 13.449219 79.535156 13.5 79.789062 13.609375 C 80.039062 13.71875 80.234375 13.863281 80.375 14.050781 C 80.511719 14.238281 80.578125 14.453125 80.578125 14.695312 C 80.578125 14.9375 80.511719 15.152344 80.375 15.34375 C 80.234375 15.535156 80.039062 15.683594 79.789062 15.792969 C 79.535156 15.898438 79.25 15.953125 78.929688 15.953125 Z M 77.597656 25.472656 L 77.597656 16.96875 L 80.273438 16.96875 L 80.273438 25.472656 Z M 77.597656 25.472656 "/>
<path style=" stroke:none;fill-rule:nonzero;fill:rgb(36.078431%,88.235294%,90.196078%);fill-opacity:1;" d="M 83.332031 25.472656 L 83.332031 16.96875 L 85.902344 16.96875 L 85.902344 18.21875 L 86.105469 18.257812 C 86.765625 17.289062 87.84375 16.808594 89.328125 16.808594 C 90.558594 16.808594 91.460938 17.074219 92.039062 17.609375 C 92.613281 18.144531 92.902344 18.921875 92.902344 19.945312 L 92.902344 25.472656 L 90.226562 25.472656 L 90.226562 20.207031 C 90.226562 19.640625 90.085938 19.234375 89.800781 18.984375 C 89.519531 18.738281 89.066406 18.613281 88.441406 18.613281 C 87.675781 18.613281 87.078125 18.808594 86.648438 19.207031 C 86.222656 19.601562 86.007812 20.222656 86.007812 21.070312 L 86.007812 25.472656 Z M 83.332031 25.472656 "/>
<path style=" stroke:none;fill-rule:nonzero;fill:rgb(36.078431%,88.235294%,90.196078%);fill-opacity:1;" d="M 100.464844 25.632812 C 99.417969 25.632812 98.503906 25.460938 97.714844 25.121094 C 96.925781 24.78125 96.3125 24.277344 95.878906 23.617188 C 95.445312 22.957031 95.230469 22.160156 95.230469 21.222656 C 95.230469 20.289062 95.445312 19.492188 95.878906 18.828125 C 96.3125 18.164062 96.925781 17.664062 97.714844 17.320312 C 98.503906 16.976562 99.417969 16.808594 100.464844 16.808594 C 101.503906 16.808594 102.421875 16.976562 103.207031 17.320312 C 103.996094 17.664062 104.609375 18.164062 105.050781 18.828125 C 105.488281 19.492188 105.707031 20.289062 105.707031 21.222656 C 105.707031 22.160156 105.488281 22.957031 105.050781 23.617188 C 104.609375 24.277344 103.996094 24.78125 103.207031 25.121094 C 102.421875 25.460938 101.503906 25.632812 100.464844 25.632812 Z M 100.464844 23.820312 C 102.117188 23.820312 102.945312 22.957031 102.945312 21.222656 C 102.945312 20.324219 102.730469 19.667969 102.304688 19.246094 C 101.882812 18.828125 101.269531 18.621094 100.464844 18.621094 C 98.808594 18.621094 97.980469 19.488281 97.980469 21.222656 C 97.980469 22.957031 98.808594 23.820312 100.464844 23.820312 Z M 100.464844 23.820312 "/>
<path style=" stroke:none;fill-rule:nonzero;fill:rgb(36.078431%,88.235294%,90.196078%);fill-opacity:1;" d="M 114.09375 25.632812 C 112.738281 25.632812 111.726562 25.226562 111.066406 24.417969 L 110.863281 24.445312 L 110.863281 25.472656 L 108.1875 25.472656 L 108.1875 13.554688 L 110.863281 13.554688 L 110.863281 17.972656 L 111.066406 18.003906 C 111.429688 17.597656 111.863281 17.296875 112.363281 17.101562 C 112.863281 16.90625 113.460938 16.808594 114.152344 16.808594 C 115.015625 16.808594 115.769531 16.96875 116.414062 17.292969 C 117.054688 17.617188 117.558594 18.109375 117.917969 18.769531 C 118.28125 19.429688 118.460938 20.25 118.460938 21.222656 C 118.460938 22.191406 118.273438 23.003906 117.898438 23.664062 C 117.527344 24.324219 117.011719 24.820312 116.355469 25.144531 C 115.699219 25.46875 114.945312 25.632812 114.09375 25.632812 Z M 113.285156 23.820312 C 114.070312 23.820312 114.667969 23.613281 115.082031 23.195312 C 115.492188 22.777344 115.699219 22.121094 115.699219 21.222656 C 115.699219 20.324219 115.492188 19.667969 115.082031 19.246094 C 114.667969 18.828125 114.070312 18.621094 113.285156 18.621094 C 112.53125 18.621094 111.933594 18.835938 111.492188 19.265625 C 111.054688 19.699219 110.832031 20.351562 110.832031 21.222656 C 110.832031 22.097656 111.054688 22.75 111.492188 23.179688 C 111.933594 23.609375 112.53125 23.820312 113.285156 23.820312 Z M 113.285156 23.820312 "/>
<path style=" stroke:none;fill-rule:nonzero;fill:rgb(36.078431%,88.235294%,90.196078%);fill-opacity:1;" d="M 122.273438 15.953125 C 121.792969 15.953125 121.398438 15.835938 121.097656 15.601562 C 120.796875 15.367188 120.644531 15.066406 120.644531 14.695312 C 120.644531 14.332031 120.796875 14.03125 121.097656 13.800781 C 121.398438 13.566406 121.792969 13.449219 122.273438 13.449219 C 122.597656 13.449219 122.882812 13.5 123.132812 13.609375 C 123.386719 13.71875 123.582031 13.863281 123.71875 14.050781 C 123.855469 14.238281 123.925781 14.453125 123.925781 14.695312 C 123.925781 14.9375 123.855469 15.152344 123.71875 15.34375 C 123.582031 15.535156 123.386719 15.683594 123.132812 15.792969 C 122.882812 15.898438 122.597656 15.953125 122.273438 15.953125 Z M 120.945312 25.472656 L 120.945312 16.96875 L 123.617188 16.96875 L 123.617188 25.472656 Z M 120.945312 25.472656 "/>
</g>
</svg>
